<svg version="1.1" id="Layer_1" xmlns="http://www.w3.org/2000/svg" xmlns:xlink="http://www.w3.org/1999/xlink" x="0px" y="0px"
	 width="100%" viewBox="0 0 128 128" enable-background="new 0 0 128 128" xml:space="preserve">
<path fill="#0000" opacity="1.000000" stroke="none" 
	d="
M76.000000,129.000000 
	C50.666668,129.000000 25.833334,129.000000 1.000000,129.000000 
	C1.000000,86.333336 1.000000,43.666668 1.000000,1.000000 
	C43.666668,1.000000 86.333336,1.000000 129.000000,1.000000 
	C129.000000,43.666668 129.000000,86.333336 129.000000,129.000000 
	C111.500000,129.000000 94.000000,129.000000 76.000000,129.000000 
M36.860523,113.658340 
	C49.623749,120.777206 63.181244,123.476440 77.545135,120.271118 
	C105.411980,114.052612 123.844383,88.791595 121.420502,60.149769 
	C121.059250,55.881035 119.587936,51.706245 118.514023,46.976521 
	C109.523888,52.090813 101.690285,57.033276 93.422836,61.091995 
	C87.143166,64.174866 84.328964,68.673683 83.248329,75.421745 
	C82.211685,81.895142 80.254425,88.310822 77.885841,94.436378 
	C76.958412,96.834900 74.016113,98.768166 71.545380,100.060516 
	C70.825394,100.437111 68.020416,98.186356 67.094673,96.600731 
	C57.767178,80.624496 48.574802,64.568275 39.478134,48.459045 
	C36.819351,43.750622 37.810738,41.710506 43.250374,40.549465 
	C45.208492,40.131523 47.459675,40.441742 49.450081,40.933666 
	C57.295021,42.872536 65.060989,45.136566 72.924767,46.989174 
	C74.661095,47.398239 76.952194,47.133057 78.516693,46.296848 
	C84.920853,42.873890 91.175346,39.164684 97.418755,35.449631 
	C100.891617,33.383152 104.234116,31.097586 107.693275,28.873524 
	C97.307076,16.485971 83.129005,10.293623 68.776283,9.590742 
	C48.868366,8.615812 32.327454,16.143822 20.631887,32.285736 
	C9.898623,47.099510 6.511764,63.642872 12.090600,81.666809 
	C16.299976,95.266335 24.393208,105.638321 36.860523,113.658340 
z"/>
<path fill="currentColor" opacity="1.000000" stroke="none" 
	d="
M36.546787,113.468941 
	C24.393208,105.638321 16.299976,95.266335 12.090600,81.666809 
	C6.511764,63.642872 9.898623,47.099510 20.631887,32.285736 
	C32.327454,16.143822 48.868366,8.615812 68.776283,9.590742 
	C83.129005,10.293623 97.307076,16.485971 107.693275,28.873524 
	C104.234116,31.097586 100.891617,33.383152 97.418755,35.449631 
	C91.175346,39.164684 84.920853,42.873890 78.516693,46.296848 
	C76.952194,47.133057 74.661095,47.398239 72.924767,46.989174 
	C65.060989,45.136566 57.295021,42.872536 49.450081,40.933666 
	C47.459675,40.441742 45.208492,40.131523 43.250374,40.549465 
	C37.810738,41.710506 36.819351,43.750622 39.478134,48.459045 
	C48.574802,64.568275 57.767178,80.624496 67.094673,96.600731 
	C68.020416,98.186356 70.825394,100.437111 71.545380,100.060516 
	C74.016113,98.768166 76.958412,96.834900 77.885841,94.436378 
	C80.254425,88.310822 82.211685,81.895142 83.248329,75.421745 
	C84.328964,68.673683 87.143166,64.174866 93.422836,61.091995 
	C101.690285,57.033276 109.523888,52.090813 118.514023,46.976521 
	C119.587936,51.706245 121.059250,55.881035 121.420502,60.149769 
	C123.844383,88.791595 105.411980,114.052612 77.545135,120.271118 
	C63.181244,123.476440 49.623749,120.777206 36.546787,113.468941 
z"/>
</svg>